<svg width="27" height="27" viewBox="0 0 27 27" fill="none" xmlns="http://www.w3.org/2000/svg">
<g id="users 1">
<path id="Vector" d="M19.125 23.625V21.375C19.125 20.1815 18.6509 19.0369 17.807 18.193C16.9631 17.3491 15.8185 16.875 14.625 16.875H5.625C4.43153 16.875 3.28693 17.3491 2.44302 18.193C1.59911 19.0369 1.125 20.1815 1.125 21.375V23.625" stroke="white" stroke-width="2" stroke-linecap="round" stroke-linejoin="round"/>
<path id="Vector_2" d="M10.125 12.375C12.6103 12.375 14.625 10.3603 14.625 7.875C14.625 5.38972 12.6103 3.375 10.125 3.375C7.63972 3.375 5.625 5.38972 5.625 7.875C5.625 10.3603 7.63972 12.375 10.125 12.375Z" stroke="white" stroke-width="2" stroke-linecap="round" stroke-linejoin="round"/>
<path id="Vector_3" d="M25.875 23.625V21.375C25.8743 20.3779 25.5424 19.4094 24.9315 18.6213C24.3207 17.8333 23.4654 17.2705 22.5 17.0212" stroke="white" stroke-width="2" stroke-linecap="round" stroke-linejoin="round"/>
<path id="Vector_4" d="M18 3.52124C18.968 3.76908 19.8259 4.33203 20.4386 5.12134C21.0513 5.91065 21.3838 6.88142 21.3838 7.88062C21.3838 8.87981 21.0513 9.85058 20.4386 10.6399C19.8259 11.4292 18.968 11.9922 18 12.24" stroke="white" stroke-width="2" stroke-linecap="round" stroke-linejoin="round"/>
</g>
</svg>
